<?xml version="1.0" encoding="UTF-8" standalone="no"?>
<!-- Created with Inkscape (http://www.inkscape.org/) -->

<svg
   xmlns:dc="http://purl.org/dc/elements/1.1/"
   xmlns:cc="http://creativecommons.org/ns#"
   xmlns:rdf="http://www.w3.org/1999/02/22-rdf-syntax-ns#"
   xmlns:svg="http://www.w3.org/2000/svg"
   xmlns="http://www.w3.org/2000/svg"
   xmlns:sodipodi="http://sodipodi.sourceforge.net/DTD/sodipodi-0.dtd"
   xmlns:inkscape="http://www.inkscape.org/namespaces/inkscape"
   id="svg2"
   version="1.1"
   inkscape:version="0.91 r13725"
   xml:space="preserve"
   width="1405.002"
   height="1357.5"
   viewBox="0 0 1405.002 1357.5"
   sodipodi:docname="double spiral.svg"><metadata
     id="metadata8"><rdf:RDF><cc:Work
         rdf:about=""><dc:format>image/svg+xml</dc:format><dc:type
           rdf:resource="http://purl.org/dc/dcmitype/StillImage" /><dc:title></dc:title></cc:Work></rdf:RDF></metadata><defs
     id="defs6"><clipPath
       clipPathUnits="userSpaceOnUse"
       id="clipPath16"><path
         d="m 0,1600 2560,0 L 2560,0 0,0 0,1600 Z"
         id="path18"
         inkscape:connector-curvature="0" /></clipPath></defs><sodipodi:namedview
     pagecolor="#ffffff"
     bordercolor="#666666"
     borderopacity="1"
     objecttolerance="10"
     gridtolerance="10"
     guidetolerance="10"
     inkscape:pageopacity="0"
     inkscape:pageshadow="2"
     inkscape:window-width="640"
     inkscape:window-height="480"
     id="namedview4"
     showgrid="false"
     fit-margin-top="50"
     fit-margin-left="50"
     fit-margin-right="50"
     fit-margin-bottom="50"
     inkscape:zoom="0.43066667"
     inkscape:cx="663.34852"
     inkscape:cy="803.988"
     inkscape:current-layer="g10" /><g
     id="g10"
     inkscape:groupmode="layer"
     inkscape:label="spiral"
     transform="matrix(1.25,0,0,-1.25,-921.249,1678.125)"><g
       id="g12"><g
         id="g14"
         clip-path="url(#clipPath16)"><g
           id="g20"
           transform="translate(1318.4615,800)"><path
             d="M 0,0 C 0,21.259 -17.203,37.962 -38.462,37.962 -59.721,37.962 -76.923,21 -76.923,-1 l -0.462,0 c 0,-42 34.405,-76.923 76.923,-76.923 42.519,0 76.924,34.923 76.924,76.923 l 0.461,0 c 0,64 -51.607,115.385 -115.385,115.385 C -102.239,114.385 -153.846,63 -153.846,-1 l -0.462,0 c 0,-85 68.81,-153.846 153.846,-153.846 85.036,0 153.847,68.846 153.847,153.846 l 0.461,0 c 0,107 -86.013,192.308 -192.308,192.308 C -144.757,191.308 -230.769,106 -230.769,-1 l -0.462,0 c 0,-127 103.215,-230.769 230.769,-230.769 127.555,0 230.77,103.769 230.77,230.769 l 0.461,0 c 0,149 -120.417,269.231 -269.231,269.231 C -187.275,268.231 -307.692,148 -307.692,-1 l -0.462,0 c 0,-170 137.62,-307.692 307.692,-307.692 170.073,0 307.693,137.692 307.693,307.692 l 0.461,0 c 0,192 -154.822,346.154 -346.154,346.154 C -229.793,345.154 -384.615,191 -384.615,-1 l -0.462,0 c 0,-212 172.025,-384.615 384.615,-384.615 212.591,0 384.616,172.615 384.616,384.615 l 0.461,0 c 0,234 -189.227,423.077 -423.077,423.077 C -272.311,422.077 -461.538,233 -461.538,-1 L -462,-1 c 0,-255 206.43,-461.538 461.538,-461.538 255.109,0 461.539,206.538 461.539,461.538 l 0.461,0 c 0,277 -223.632,500.5 -500,500.5 -276.367,0 -500,-223.383 -500,-499.75"
             style="fill:none;stroke:#000000;stroke-width:6;stroke-linecap:round;stroke-linejoin:miter;stroke-miterlimit:10;stroke-dasharray:none;stroke-opacity:1"
             id="path22"
             inkscape:connector-curvature="0" /></g><g
           id="g24"
           transform="translate(1279.5385,800)"><path
             d="M 0,0 C 0,-21.259 17.203,-38.962 38.462,-38.962 59.721,-38.962 76.923,-22 76.923,-1 l 0.462,0 C 77.385,42 42.98,75.923 0.462,75.923 -42.057,75.923 -76.462,42 -76.462,-1 l -0.461,0 c 0,-63 51.607,-115.385 115.385,-115.385 63.777,0 115.384,52.385 115.384,115.385 l 0.462,0 c 0,86 -68.81,153.846 -153.846,153.846 C -84.574,152.846 -153.385,85 -153.385,-1 l -0.461,0 c 0,-106 86.013,-192.308 192.308,-192.308 106.295,0 192.307,86.308 192.307,192.308 l 0.462,0 C 231.231,127 128.016,229.769 0.462,229.769 -127.093,229.769 -230.308,127 -230.308,-1 l -0.461,0 c 0,-148 120.417,-269.231 269.231,-269.231 148.813,0 269.23,121.231 269.23,269.231 l 0.462,0 c 0,171 -137.62,307.692 -307.692,307.692 C -169.611,306.692 -307.231,170 -307.231,-1 l -0.461,0 c 0,-191 154.822,-346.154 346.154,-346.154 191.331,0 346.153,155.154 346.153,346.154 l 0.462,0 C 385.077,212 213.052,383.615 0.462,383.615 -212.129,383.615 -384.154,212 -384.154,-1 l -0.461,0 c 0,-233 189.227,-423.077 423.077,-423.077 233.849,0 423.076,190.077 423.076,423.077 L 462,-1 C 462,255 255.57,460.538 0.462,460.538 -254.647,460.538 -461.077,255 -461.077,-1 l -0.461,0 c 0,-276 223.632,-499.5 500,-499.5 276.367,0 500,223.883 500,500.25"
             style="fill:none;stroke:#ff0000;stroke-width:6;stroke-linecap:round;stroke-linejoin:miter;stroke-miterlimit:10;stroke-dasharray:none;stroke-opacity:1"
             id="path26"
             inkscape:connector-curvature="0" /></g></g></g></g></svg>